<svg width="105" height="105" viewBox="0 0 105 105" fill="none" xmlns="http://www.w3.org/2000/svg">
<circle cx="52.5004" cy="52.5001" r="27.3767" transform="rotate(163.505 52.5004 52.5001)" fill="#514F74"/>
<rect x="70.7031" y="73.7183" width="55.171" height="3.87165" transform="rotate(-135 70.7031 73.7183)" fill="#A16F92"/>
<rect x="73.75" y="34.5349" width="55.171" height="3.87165" transform="rotate(135 73.75 34.5349)" fill="#A16F92"/>
<path d="M53.5947 75.2243L46.5568 68.1863L48.9688 65.7743C49.7648 64.9784 50.5301 64.532 51.2648 64.4354C51.9996 64.3387 52.6827 64.6062 53.3143 65.2378C53.6366 65.56 53.8396 65.937 53.9234 66.3689C54.0072 66.8007 53.9524 67.255 53.759 67.732C54.2424 67.4548 54.7306 67.3566 55.2237 67.4371C55.7167 67.5112 56.163 67.7481 56.5626 68.1477C57.2232 68.8083 57.5181 69.5285 57.4472 70.3084C57.3795 71.085 56.9509 71.868 56.1614 72.6576L53.5947 75.2243ZM51.6419 70.8256L53.8412 73.0249L55.1995 71.6666C55.583 71.2832 55.7876 70.8884 55.8134 70.4824C55.8392 70.0763 55.6829 69.7041 55.3445 69.3658C54.613 68.6343 53.8654 68.6343 53.1016 69.3658L51.6419 70.8256ZM50.7428 69.9265L51.9415 68.7277C52.3218 68.3475 52.5329 67.9656 52.5748 67.5821C52.6167 67.1922 52.4797 66.8393 52.1639 66.5235C51.8159 66.1755 51.4646 66.0241 51.1101 66.0692C50.7589 66.1111 50.3738 66.3415 49.9549 66.7604L48.7658 67.9495L50.7428 69.9265Z" fill="#FEAF52"/>
<path d="M55.9222 35.7607C55.6129 35.4513 55.2648 35.3224 54.8781 35.374C54.4947 35.4223 53.9339 35.6447 53.196 36.041C52.458 36.4374 51.8168 36.6984 51.2722 36.8241C50.2281 37.0626 49.3822 36.8579 48.7344 36.2102C48.1673 35.6431 47.9304 34.9454 48.0239 34.1172C48.1206 33.2858 48.5379 32.5011 49.2758 31.7632C49.7656 31.2734 50.2925 30.927 50.8565 30.7239C51.4204 30.5209 51.9795 30.4774 52.5338 30.5934C53.0848 30.7062 53.5634 30.9656 53.9694 31.3717L52.7513 32.5898C52.3839 32.2224 51.9811 32.0516 51.5429 32.0774C51.1046 32.0967 50.6712 32.3207 50.2426 32.7493C49.843 33.1489 49.6174 33.5452 49.5659 33.9384C49.5175 34.3283 49.6464 34.6763 49.9526 34.9825C50.2103 35.2403 50.5455 35.3369 50.958 35.2725C51.3672 35.2048 51.9279 34.9792 52.6401 34.5958C53.3491 34.2091 53.9742 33.9545 54.5156 33.832C55.0538 33.7064 55.5355 33.7015 55.9609 33.8175C56.383 33.9303 56.7746 34.1672 57.1355 34.5281C57.722 35.1146 57.9637 35.8074 57.8605 36.6066C57.7574 37.3993 57.3208 38.1808 56.5506 38.951C56.0414 39.4601 55.4791 39.8355 54.8636 40.0772C54.2481 40.3125 53.6552 40.3834 53.0848 40.2899C52.5177 40.1932 52.0133 39.9241 51.5719 39.4827L52.7948 38.2597C53.1944 38.6593 53.6359 38.8366 54.1192 38.7914C54.6026 38.7463 55.0908 38.4773 55.5839 37.9842C56.0092 37.5588 56.2429 37.1544 56.2847 36.7709C56.3266 36.381 56.2058 36.0443 55.9222 35.7607Z" fill="#FEAF52"/>
</svg>
