<svg width="168" height="165" viewBox="0 0 168 165" fill="none" xmlns="http://www.w3.org/2000/svg">
<path d="M36.2465 113.126C36.2465 111.783 35.7706 110.747 34.8187 110.019C33.8809 109.291 32.1802 108.556 29.7167 107.814C27.2532 107.073 25.2935 106.247 23.8378 105.337C21.0523 103.587 19.6596 101.306 19.6596 98.4922C19.6596 96.0286 20.6604 93.999 22.662 92.4033C24.6776 90.8076 27.2881 90.0098 30.4936 90.0098C32.6212 90.0098 34.5178 90.4017 36.1835 91.1855C37.8492 91.9694 39.1579 93.0892 40.1098 94.5449C41.0616 95.9867 41.5375 97.5894 41.5375 99.353H36.2465C36.2465 97.7573 35.7426 96.5116 34.7348 95.6157C33.7409 94.7059 32.3132 94.251 30.4516 94.251C28.7159 94.251 27.3651 94.6219 26.3993 95.3638C25.4475 96.1056 24.9716 97.1414 24.9716 98.4712C24.9716 99.591 25.4895 100.529 26.5253 101.285C27.5611 102.027 29.2688 102.754 31.6483 103.468C34.0279 104.168 35.9385 104.973 37.3803 105.883C38.822 106.779 39.8788 107.814 40.5507 108.99C41.2226 110.152 41.5585 111.517 41.5585 113.084C41.5585 115.632 40.5787 117.662 38.619 119.173C36.6734 120.671 34.0279 121.42 30.6825 121.42C28.4709 121.42 26.4343 121.014 24.5727 120.202C22.725 119.376 21.2833 118.243 20.2475 116.801C19.2256 115.359 18.7147 113.679 18.7147 111.762H24.0268C24.0268 113.497 24.6006 114.841 25.7484 115.793C26.8962 116.745 28.5409 117.221 30.6825 117.221C32.5302 117.221 33.9159 116.85 34.8397 116.108C35.7776 115.352 36.2465 114.358 36.2465 113.126ZM51.2209 109.431C51.2209 107.206 51.6618 105.204 52.5437 103.426C53.4255 101.635 54.6643 100.263 56.26 99.311C57.8557 98.3452 59.6893 97.8623 61.7609 97.8623C64.8264 97.8623 67.3109 98.8491 69.2146 100.823C71.1322 102.796 72.168 105.414 72.322 108.675L72.343 109.872C72.343 112.112 71.909 114.113 71.0412 115.877C70.1874 117.641 68.9556 119.005 67.3459 119.971C65.7502 120.937 63.9025 121.42 61.8029 121.42C58.5975 121.42 56.029 120.356 54.0974 118.229C52.1797 116.087 51.2209 113.238 51.2209 109.683V109.431ZM56.3229 109.872C56.3229 112.21 56.8059 114.043 57.7717 115.373C58.7375 116.689 60.0812 117.347 61.8029 117.347C63.5246 117.347 64.8614 116.675 65.8132 115.331C66.779 113.987 67.2619 112.021 67.2619 109.431C67.2619 107.136 66.765 105.316 65.7712 103.972C64.7914 102.628 63.4546 101.957 61.7609 101.957C60.0952 101.957 58.7725 102.621 57.7927 103.951C56.8129 105.267 56.3229 107.241 56.3229 109.872ZM87.8423 98.2822L87.9893 100.907C89.6689 98.8771 91.8735 97.8623 94.603 97.8623C99.3341 97.8623 101.742 100.571 101.826 105.988V121H96.7236V106.282C96.7236 104.84 96.4087 103.776 95.7788 103.09C95.1629 102.39 94.1481 102.041 92.7344 102.041C90.6768 102.041 89.144 102.971 88.1362 104.833V121H83.0342V98.2822H87.8423ZM118.921 121H113.819V98.2822H118.921V121ZM113.504 92.3823C113.504 91.5985 113.749 90.9476 114.239 90.4297C114.742 89.9118 115.456 89.6528 116.38 89.6528C117.304 89.6528 118.018 89.9118 118.522 90.4297C119.026 90.9476 119.278 91.5985 119.278 92.3823C119.278 93.1522 119.026 93.7961 118.522 94.314C118.018 94.8179 117.304 95.0698 116.38 95.0698C115.456 95.0698 114.742 94.8179 114.239 94.314C113.749 93.7961 113.504 93.1522 113.504 92.3823ZM140.278 117.347C141.552 117.347 142.608 116.976 143.448 116.234C144.288 115.492 144.736 114.575 144.792 113.483H149.6C149.544 114.897 149.103 116.22 148.277 117.452C147.452 118.669 146.332 119.635 144.918 120.349C143.504 121.063 141.979 121.42 140.341 121.42C137.164 121.42 134.644 120.391 132.782 118.333C130.921 116.276 129.99 113.434 129.99 109.809V109.284C129.99 105.827 130.914 103.062 132.761 100.991C134.609 98.9051 137.129 97.8623 140.32 97.8623C143.021 97.8623 145.219 98.6532 146.913 100.235C148.62 101.803 149.516 103.867 149.6 106.429H144.792C144.736 105.127 144.288 104.056 143.448 103.216C142.622 102.376 141.566 101.957 140.278 101.957C138.626 101.957 137.352 102.558 136.457 103.762C135.561 104.952 135.106 106.765 135.092 109.2V110.019C135.092 112.483 135.533 114.323 136.415 115.541C137.31 116.745 138.598 117.347 140.278 117.347ZM20.68 161V130.43H31.157C34.6144 130.43 37.2459 131.123 39.0516 132.508C40.8572 133.894 41.7601 135.959 41.7601 138.702C41.7601 140.102 41.3821 141.362 40.6263 142.481C39.8704 143.601 38.7646 144.469 37.3089 145.085C38.9606 145.533 40.2343 146.38 41.1302 147.625C42.04 148.857 42.4949 150.341 42.4949 152.077C42.4949 154.946 41.5711 157.151 39.7234 158.69C37.8898 160.23 35.2583 161 31.8289 161H20.68ZM25.992 147.206V156.759H31.8919C33.5576 156.759 34.8593 156.346 35.7972 155.52C36.735 154.694 37.2039 153.546 37.2039 152.077C37.2039 148.899 35.5802 147.276 32.3328 147.206H25.992ZM25.992 143.3H31.199C32.8507 143.3 34.1385 142.929 35.0623 142.188C36.0001 141.432 36.469 140.368 36.469 138.996C36.469 137.484 36.0351 136.393 35.1673 135.721C34.3134 135.049 32.9767 134.713 31.157 134.713H25.992V143.3ZM52.8082 149.431C52.8082 147.206 53.2491 145.204 54.131 143.426C55.0128 141.635 56.2516 140.263 57.8473 139.311C59.443 138.345 61.2766 137.862 63.3482 137.862C66.4137 137.862 68.8982 138.849 70.8019 140.823C72.7195 142.796 73.7553 145.414 73.9093 148.675L73.9303 149.872C73.9303 152.112 73.4964 154.113 72.6285 155.877C71.7747 157.641 70.5429 159.005 68.9332 159.971C67.3375 160.937 65.4898 161.42 63.3902 161.42C60.1848 161.42 57.6163 160.356 55.6847 158.229C53.767 156.087 52.8082 153.238 52.8082 149.683V149.431ZM57.9103 149.872C57.9103 152.21 58.3932 154.043 59.359 155.373C60.3248 156.689 61.6686 157.347 63.3902 157.347C65.1119 157.347 66.4487 156.675 67.4005 155.331C68.3663 153.987 68.8492 152.021 68.8492 149.431C68.8492 147.136 68.3523 145.316 67.3585 143.972C66.3787 142.628 65.0419 141.957 63.3482 141.957C61.6825 141.957 60.3598 142.621 59.38 143.951C58.4002 145.267 57.9103 147.241 57.9103 149.872ZM83.7396 149.431C83.7396 147.206 84.1806 145.204 85.0624 143.426C85.9442 141.635 87.183 140.263 88.7787 139.311C90.3744 138.345 92.2081 137.862 94.2797 137.862C97.3451 137.862 99.8297 138.849 101.733 140.823C103.651 142.796 104.687 145.414 104.841 148.675L104.862 149.872C104.862 152.112 104.428 154.113 103.56 155.877C102.706 157.641 101.474 159.005 99.8646 159.971C98.2689 160.937 96.4213 161.42 94.3217 161.42C91.1163 161.42 88.5478 160.356 86.6161 158.229C84.6985 156.087 83.7396 153.238 83.7396 149.683V149.431ZM88.8417 149.872C88.8417 152.21 89.3246 154.043 90.2904 155.373C91.2562 156.689 92.6 157.347 94.3217 157.347C96.0434 157.347 97.3801 156.675 98.3319 155.331C99.2978 153.987 99.7807 152.021 99.7807 149.431C99.7807 147.136 99.2838 145.316 98.2899 143.972C97.3101 142.628 95.9734 141.957 94.2797 141.957C92.614 141.957 91.2912 142.621 90.3114 143.951C89.3316 145.267 88.8417 147.241 88.8417 149.872ZM120.424 138.282L120.571 140.655C122.167 138.793 124.35 137.862 127.122 137.862C130.159 137.862 132.238 139.024 133.358 141.348C135.009 139.024 137.333 137.862 140.328 137.862C142.834 137.862 144.696 138.555 145.913 139.941C147.145 141.327 147.775 143.37 147.803 146.072V161H142.701V146.219C142.701 144.777 142.386 143.72 141.756 143.048C141.126 142.376 140.083 142.041 138.628 142.041C137.466 142.041 136.514 142.355 135.772 142.985C135.044 143.601 134.533 144.413 134.239 145.421L134.26 161H129.158V146.051C129.088 143.377 127.724 142.041 125.064 142.041C123.021 142.041 121.572 142.873 120.718 144.539V161H115.616V138.282H120.424Z" fill="#FFFEFE"/>
<ellipse rx="27.6492" ry="27.6492" transform="matrix(-0.959032 0.283874 -0.283985 -0.958658 83.0222 53.0124)" fill="#514F74"/>
<rect width="55.7202" height="3.91019" transform="matrix(-0.707245 -0.706969 0.707245 -0.706969 101.414 74.437)" fill="#A16F92"/>
<rect width="55.7202" height="3.91019" transform="matrix(-0.707245 0.706969 -0.707245 -0.706969 104.492 34.8713)" fill="#A16F92"/>
<path d="M83.8549 75.0198L76.3128 67.4807L78.8976 64.8969C79.7506 64.0442 80.5707 63.5661 81.3581 63.4625C82.1455 63.359 82.8776 63.6455 83.5544 64.3221C83.8998 64.6673 84.1173 65.0712 84.2071 65.5337C84.2969 65.9963 84.2382 66.483 84.031 66.9939C84.549 66.6971 85.0722 66.5918 85.6005 66.6781C86.1289 66.7575 86.6072 67.0112 87.0354 67.4392C87.7433 68.1469 88.0593 68.9184 87.9833 69.7538C87.9108 70.5857 87.4515 71.4246 86.6054 72.2703L83.8549 75.0198ZM81.7621 70.3079L84.119 72.6638L85.5746 71.2088C85.9856 70.798 86.2049 70.3752 86.2325 69.9402C86.2601 69.5053 86.0926 69.1066 85.73 68.7441C84.9461 67.9605 84.1449 67.9605 83.3265 68.7441L81.7621 70.3079ZM80.7986 69.3447L82.0833 68.0606C82.4908 67.6533 82.717 67.2442 82.7619 66.8334C82.8068 66.4157 82.66 66.0377 82.3216 65.6994C81.9486 65.3266 81.5722 65.1644 81.1923 65.2127C80.8159 65.2576 80.4032 65.5044 79.9543 65.9532L78.68 67.2269L80.7986 69.3447Z" fill="#FEAF52"/>
<path d="M87.3298 38.335C86.9983 38.0036 86.6253 37.8656 86.2109 37.9208C85.8 37.9726 85.1991 38.2108 84.4083 38.6354C83.6175 39.06 82.9302 39.3396 82.3466 39.4742C81.2277 39.7296 80.3212 39.5104 79.6271 38.8166C79.0193 38.209 78.7655 37.4617 78.8657 36.5745C78.9693 35.6839 79.4165 34.8433 80.2073 34.0528C80.7322 33.5281 81.2968 33.157 81.9011 32.9396C82.5055 32.7221 83.1046 32.6755 83.6986 32.7998C84.2891 32.9206 84.802 33.1985 85.2371 33.6334L83.9317 34.9383C83.538 34.5447 83.1064 34.3618 82.6367 34.3894C82.1671 34.4101 81.7026 34.65 81.2433 35.1091C80.8151 35.5372 80.5733 35.9618 80.5181 36.3829C80.4663 36.8006 80.6044 37.1734 80.9325 37.5014C81.2087 37.7775 81.5679 37.8811 82.0099 37.8121C82.4485 37.7396 83.0494 37.4979 83.8126 37.0871C84.5723 36.6729 85.2423 36.4002 85.8224 36.269C86.3991 36.1344 86.9154 36.1292 87.3712 36.2535C87.8236 36.3743 88.2432 36.628 88.63 37.0147C89.2585 37.6429 89.5175 38.3851 89.407 39.2412C89.2965 40.0904 88.8286 40.9275 88.0032 41.7525C87.4576 42.2979 86.855 42.7001 86.1954 42.959C85.5358 43.211 84.9004 43.2869 84.2891 43.1868C83.6813 43.0833 83.1409 42.795 82.6678 42.3221L83.9783 41.0121C84.4065 41.4401 84.8797 41.63 85.3977 41.5816C85.9157 41.5333 86.4388 41.2451 86.9672 40.7169C87.423 40.2613 87.6734 39.828 87.7183 39.4172C87.7632 38.9995 87.6337 38.6388 87.3298 38.335Z" fill="#FEAF52"/>
</svg>
