<svg width="656" height="84" viewBox="0 0 656 84" fill="none" xmlns="http://www.w3.org/2000/svg">
<path fill-rule="evenodd" clip-rule="evenodd" d="M0 39.6881H22.0375C43.5625 39.6881 87.6375 39.6881 131.2 44.6972C174.762 49.3211 218.837 59.3395 262.4 47.0092C305.962 34.6789 350.037 0 393.6 0C437.162 0 481.237 34.6789 524.8 47.0092C568.362 59.3395 612.437 49.3211 633.962 44.6972L656 39.6881V84H633.962C612.437 84 568.362 84 524.8 84C481.237 84 437.162 84 393.6 84C350.037 84 305.962 84 262.4 84C218.837 84 174.762 84 131.2 84C87.6375 84 43.5625 84 22.0375 84H0V39.6881Z" fill="#FEAF52"/>
</svg>
