<svg width="656" height="50" viewBox="0 0 656 50" fill="none" xmlns="http://www.w3.org/2000/svg">
<path fill-rule="evenodd" clip-rule="evenodd" d="M0 6.76437L15.8533 13.5287C31.16 20.2931 62.32 33.8219 93.48 41.7136C125.187 49.6054 156.347 51.8602 187.507 48.478C218.667 45.0958 249.827 36.0767 280.987 28.1849C312.147 20.2931 343.853 13.5287 375.013 16.9109C406.173 20.2931 437.333 33.8219 468.493 38.3315C499.653 42.841 530.813 38.3315 562.52 31.5671C593.68 24.8027 624.84 15.7835 640.147 11.274L656 6.76437V0H640.147C624.84 0 593.68 0 562.52 0C530.813 0 499.653 0 468.493 0C437.333 0 406.173 0 375.013 0C343.853 0 312.147 0 280.987 0C249.827 0 218.667 0 187.507 0C156.347 0 125.187 0 93.48 0C62.32 0 31.16 0 15.8533 0H0V6.76437Z" fill="#FEAF52"/>
</svg>
